<?xml version="1.0" encoding="UTF-8"?>
<!DOCTYPE svg PUBLIC "-//W3C//DTD SVG 1.0//EN" "http://www.w3.org/TR/2001/REC-SVG-20010904/DTD/svg10.dtd">
<!-- Creator: CorelDRAW 2018 (64-Bit) -->
<svg xmlns="http://www.w3.org/2000/svg" xml:space="preserve" width="70px" height="70px" version="1.0" style="shape-rendering:geometricPrecision; text-rendering:geometricPrecision; image-rendering:optimizeQuality; fill-rule:evenodd; clip-rule:evenodd"
viewBox="0 0 70 70"
 xmlns:xlink="http://www.w3.org/1999/xlink">
 <defs>
  <style type="text/css">
   <![CDATA[
    .fil3 {fill:#FEFEFE}
    .fil2 {fill:#373435}
    .fil0 {fill:#0B9547}
    .fil1 {fill:#393939;fill-opacity:0.325490}
   ]]>
  </style>
 </defs>
 <g id="Layer_x0020_1">
  <metadata id="CorelCorpID_0Corel-Layer"/>
  <g id="_1716490489152">
   <rect class="fil0" x="0.04" y="-0.04" width="69.92" height="70" rx="1.6" ry="1.39"/>
   <path class="fil1" d="M0.04 64.97l0 -21.97 0 -9.08c0,0 22.43,-14.92 23.93,-15.42 1.5,-0.5 4.49,-1.45 4.49,-1.45l0.26 5.67 12.82 2.52 7.59 1.77 6.58 22.31 -10.22 20.64 -16.4 0 -27.47 0c-0.87,0 -1.58,-0.71 -1.58,-1.58l0 -3.41z"/>
   <g>
    <path class="fil2" d="M37.68 22.42c1.2,-1.23 2.5,-2.4 3.86,-3.46 1.35,1.06 2.65,2.23 3.85,3.46 6.61,6.75 10.32,15.83 10.32,25.28 0,0.01 0,0.02 0,0.02 0,0.54 0,1.03 0,1.6l-12.14 0 7.79 -4.86c-0.37,-4.34 -1.74,-8.54 -3.97,-12.27 -1.57,-2.61 -3.55,-4.96 -5.85,-6.95 -5.67,4.87 -9.21,11.78 -9.86,19.22l3.29 4.86 -7.57 0c0,-0.53 0,-1.02 0,-1.6 0,-0.02 0,-0.04 0,-0.06 0,-9.44 3.69,-18.49 10.28,-25.24l0 0z"/>
    <path class="fil2" d="M32.32 22.42c-1.2,-1.23 -2.5,-2.4 -3.86,-3.46 -1.35,1.06 -2.65,2.23 -3.85,3.46 -6.61,6.75 -10.32,15.83 -10.32,25.28 0,0.01 0,0.02 0,0.02 0,0.54 0,1.03 0,1.6l12.14 0 -7.8 -4.86c0.65,-7.43 4.18,-14.34 9.84,-19.22 2.3,1.99 4.28,4.34 5.85,6.95 2.23,3.73 3.59,7.93 3.97,12.27l-3.29 4.86 7.6 0c0,-0.53 0,-1.02 0,-1.6 0,-0.01 0,-0.04 0,-0.06 0,-9.43 -3.7,-18.5 -10.28,-25.24l0 0z"/>
   </g>
   <g>
    <path class="fil3" d="M37.68 20.5c1.2,-1.23 2.5,-2.4 3.86,-3.46 1.35,1.06 2.65,2.23 3.85,3.46 6.61,6.75 10.32,15.83 10.32,25.28 0,0.01 0,0.02 0,0.03 0,0.53 0,1.02 0,1.59l-12.14 0 7.79 -4.86c-0.37,-4.33 -1.74,-8.54 -3.97,-12.27 -1.57,-2.61 -3.55,-4.96 -5.85,-6.94 -5.67,4.87 -9.21,11.77 -9.86,19.21l3.29 4.86 -7.57 0c0,-0.53 0,-1.02 0,-1.59 0,-0.02 0,-0.05 0,-0.07 0,-9.43 3.69,-18.49 10.28,-25.24l0 0z"/>
    <path class="fil3" d="M32.32 20.5c-1.2,-1.23 -2.5,-2.4 -3.86,-3.45 -1.35,1.05 -2.65,2.22 -3.85,3.45 -6.61,6.75 -10.32,15.83 -10.32,25.28 0,0.01 0,0.02 0,0.03 0,0.53 0,1.02 0,1.59l12.14 0 -7.8 -4.86c0.65,-7.43 4.18,-14.34 9.84,-19.21 2.3,1.98 4.28,4.33 5.85,6.94 2.23,3.73 3.59,7.94 3.97,12.27l-3.29 4.86 7.6 0c0,-0.53 0,-1.02 0,-1.59 0,-0.02 0,-0.05 0,-0.07 0,-9.43 -3.7,-18.5 -10.28,-25.24l0 0z"/>
   </g>
  </g>
 </g>
</svg>
